# xmcd
#
# Track frame offsets:
#	150
#	14529
#	34170
#	34653
#	46955
#	62159
#	62926
#	78005
#	92177
#	107013
#	108354
#	125753
#	144084
#	160060
#	172618
#	185289
#	196649
#	197323
#
# Disc length: 2831 seconds
#
# Revision: 1
# Processed by: cddbd v1.5.2PL0 Copyright (c) Steve Scherf et al.
# Submitted via: audiograbber 1.83.01
#
DISCID=de0b0d12
DTITLE=Hillcrest  - Hillcrest Pure Country 77
DYEAR=2015
DGENRE=
TTITLE0=Day Job -Robert Mizzell
TTITLE1=Funny How Times Slips Away -Mel Gibson
TTITLE2=Radio Liner -Dave Sheriff
TTITLE3=Cowgirl Swing -Dave Sheriff
TTITLE4=What I Was -Wesley Parker
TTITLE5=Radio Liner -Sherry Kennedy
TTITLE6=Somewhere Between -Sherry Kennedy
TTITLE7=This Old Country Songs -Jeff Chance
TTITLE8=Lovers Or Friends -Darnell Miller and Andrea Call
TTITLE9=Radio Liner -Jj Woss
TTITLE10=Time For Change -Jj Woss
TTITLE11=She Likes Taylor Swift -Katie Grant
TTITLE12=Where´m I Gonna Live -Brandon McPhee
TTITLE13=Down In Mexico -Jeff Woolsey
TTITLE14=All Things Made New Again -Kate Bain
TTITLE15=Candlight and Wine -Larry Mattson
TTITLE16=Radio Liner -Roos Allen
TTITLE17=I´ll Be Seeing You Someday -Ross Allen
EXTD=
EXTT0=
EXTT1=
EXTT2=
EXTT3=
EXTT4=
EXTT5=
EXTT6=
EXTT7=
EXTT8=
EXTT9=
EXTT10=
EXTT11=
EXTT12=
EXTT13=
EXTT14=
EXTT15=
EXTT16=
EXTT17=
PLAYORDER=
